<svg width="80" height="81" viewBox="0 0 80 81" fill="none" xmlns="http://www.w3.org/2000/svg">
  <g clip-path="url(#clip0_101_9)">
    <path
      d="M14.5571 25.9434C15.1302 26.8986 15.6078 27.7582 16.0949 28.5893C17.2793 30.6047 18.4638 32.6201 19.6291 34.6451C20.7944 36.6701 21.8547 38.5614 22.9818 40.5195C24.2713 42.7451 25.5895 44.9516 26.879 47.2059C27.8342 48.801 28.6843 50.4057 29.6013 51.9818C30.8748 54.166 32.1293 56.347 33.3647 58.5248L38.303 67.1215C38.857 68.0767 39.411 69.0319 40.0319 69.9871C40.137 70.122 40.2699 70.2327 40.4215 70.3118C40.5731 70.3909 40.7399 70.4365 40.9107 70.4456C42.3721 70.3596 43.824 70.1972 45.2854 70.073C45.4844 70.0878 45.6804 70.1296 45.8681 70.1972C45.822 70.377 45.7613 70.5527 45.6866 70.7226C45.209 71.5727 44.7314 72.4133 44.2252 73.2634C43.3974 74.6962 42.544 76.1671 41.6653 77.6763C41.2641 78.3927 40.882 79.1091 40.4617 79.816C40.3415 79.9858 40.16 80.1022 39.9555 80.1407C39.86 80.1407 39.6689 79.9688 39.5925 79.8255C38.7711 78.3927 37.9783 76.9599 37.1472 75.5081C35.8673 73.2729 34.5682 71.0473 33.3265 68.8217C31.4161 65.5104 29.5057 62.1927 27.5954 58.8687C26.0098 56.2196 24.4528 53.5738 22.9245 50.9311C21.8547 49.0207 20.804 47.1772 19.7246 45.3146C18.416 43.0699 17.0979 40.8348 15.7892 38.6283C14.9869 37.2433 14.1463 35.8773 13.4395 34.4541C13.2356 33.8888 13.1701 33.2828 13.2484 32.687C13.2931 30.6659 13.6145 28.6605 14.2036 26.7266C14.3278 26.4974 14.4233 26.2968 14.5571 25.9434ZM74.1512 10.9851H79.2806C80.0925 10.9851 80.1593 11.0998 79.7677 11.7684C78.0102 14.7868 76.2431 17.8052 74.4951 20.8236C73.3584 22.8008 72.2599 24.7876 71.1233 26.7648L67.5126 33.0404L62.5648 41.6371C60.9887 44.3498 59.3936 47.0435 57.7888 49.7467C56.5758 51.8385 55.2385 53.8635 54.1973 56.0318C53.4141 57.6747 52.0291 58.286 50.5581 58.8974C49.3354 59.3845 48.065 59.757 46.8233 60.1773C46.6557 60.2456 46.4784 60.2875 46.2979 60.3015C46.23 60.3008 46.163 60.285 46.1019 60.2553C46.0407 60.2256 45.987 60.1826 45.9445 60.1295C45.9152 60.0718 45.8999 60.008 45.8999 59.9433C45.8999 59.8785 45.9152 59.8147 45.9445 59.757C47.1958 57.5792 48.4758 55.4205 49.7653 53.2426C50.8924 51.2845 51.9813 49.3073 53.118 47.3587C54.2546 45.4101 55.4104 43.4711 56.5375 41.5129C57.4927 39.8796 58.4479 38.2175 59.4031 36.5746C60.5111 34.6642 61.6287 32.7539 62.7272 30.8435C63.4531 29.5826 64.1504 28.3027 64.8859 27.0227C65.822 25.3989 66.7772 23.7815 67.7514 22.1704L71.0564 16.5348C71.1999 16.3396 71.2773 16.1037 71.2773 15.8614C71.2773 15.6191 71.1999 15.3832 71.0564 15.188C70.2349 14.0417 69.4326 12.8764 68.6302 11.7015C68.5412 11.5401 68.4768 11.3662 68.4392 11.1857C68.6143 11.1012 68.801 11.0433 68.9932 11.0138L74.1512 10.9851ZM6.00813 21.5591L0 11.1953C0.228179 11.1046 0.465018 11.0374 0.706839 10.9947C1.06637 10.9756 1.42667 10.9756 1.7862 10.9947H53.032C53.8331 11.0493 54.5884 11.388 55.1621 11.9499C56.6235 13.1248 58.0276 14.3665 59.4604 15.5892C59.5681 15.6965 59.6642 15.815 59.747 15.9426C59.4606 16.0312 59.1663 16.092 58.8682 16.1241H10.3256C8.4152 16.1241 8.4152 16.1241 7.61284 17.9485C7.36449 18.5311 7.06839 19.0947 6.80093 19.6774C6.53348 20.26 6.31379 20.8236 6.00813 21.5591Z"
      fill="#B70E5E" />
    <path
      d="M73.2447 27.1564C73.38 27.35 73.4862 27.5624 73.5599 27.7868C73.7796 29.4584 74.0852 31.1204 74.1712 32.792C74.3398 36.4232 73.9073 40.0573 72.8912 43.5474C71.9552 46.8422 70.5184 49.9736 68.6311 52.8319C66.8839 55.4925 64.7786 57.8999 62.3746 59.9862C60.17 61.9609 57.6769 63.5875 54.9815 64.8099C53.2978 65.5961 51.5691 66.2819 49.8044 66.8636C48.0863 67.3158 46.3454 67.6761 44.589 67.9429C43.7676 68.0958 42.9175 68.1149 42.0864 68.2677C41.9022 68.3244 41.7036 68.3121 41.5278 68.233C41.3519 68.1539 41.211 68.0134 41.1313 67.8379L39.1636 64.3705C39.0905 64.2514 39.0266 64.1269 38.9725 63.998C38.877 63.7305 38.791 63.4631 38.7051 63.1956C38.9459 63.1034 39.1955 63.0361 39.4501 62.9951C41.5124 63.0823 43.5772 62.8992 45.592 62.4506C47.3304 61.9921 49.0784 61.5527 50.7595 60.9509C51.929 60.5015 53.0546 59.9452 54.1218 59.2889C55.331 58.6338 56.49 57.8899 57.5891 57.0633C59.3116 55.8183 60.846 54.3321 62.1454 52.6504C63.1006 51.3513 64.0558 50.1191 64.9345 48.7628C66.0387 46.9669 66.9177 45.0421 67.5518 43.0316C68.3545 40.7257 68.7928 38.3087 68.8508 35.8677C68.9071 34.8059 69.2576 33.7806 69.8633 32.9066C70.9331 31.0822 71.9552 29.2387 72.9963 27.3952C73.0345 27.3283 73.1014 27.2901 73.2447 27.1564ZM12.7526 18.2254H15.0929C15.2847 18.2512 15.4715 18.3059 15.6469 18.3878C15.59 18.5635 15.523 18.7357 15.4463 18.9036C14.8063 20.1262 14.0517 21.2916 13.5359 22.562C12.8457 24.2162 12.2743 25.9176 11.8261 27.6531C11.2089 30.1892 10.9898 32.8058 11.1766 35.4092C11.2632 37.0446 11.4611 38.6722 11.7688 40.2807C12.194 42.3603 12.8775 44.3787 13.8033 46.2888C14.6458 48.0968 15.6631 49.818 16.8408 51.4277C18.2508 53.3737 19.9259 55.113 21.8174 56.5953C22.7152 57.2639 23.594 57.9708 24.5397 58.5057C25.2071 59.0006 25.7366 59.6583 26.0775 60.416C27.1378 62.1545 28.1407 63.9216 29.1532 65.6887C29.2287 65.9174 29.2737 66.155 29.2869 66.3955C29.0755 66.3947 28.8646 66.3755 28.6565 66.3382C28.1503 66.1472 27.7013 65.9084 27.1664 65.7269C25.1533 64.9569 23.2313 63.967 21.4353 62.7754C18.2899 60.7367 15.4989 58.1974 13.1729 55.258C12.2955 54.1392 11.5006 52.958 10.7945 51.7238C10.0091 50.4296 9.30107 49.09 8.67399 47.712C7.72801 45.549 7.02638 43.2871 6.58213 40.9684C6.05816 38.4177 5.82741 35.8154 5.8944 33.2123C5.90983 30.6426 6.27946 28.0873 6.99286 25.6186C7.60418 23.7082 8.28236 21.7978 8.90324 19.8874C9.00909 19.5019 9.19096 19.1414 9.43814 18.8272C9.68391 18.544 10.0226 18.3577 10.3933 18.3018C11.1861 18.1777 11.9694 18.2254 12.7526 18.2254ZM65.9088 21.0432C65.6509 20.6516 65.4312 20.365 65.2593 20.088C63.6851 17.2375 61.6446 14.6707 59.2225 12.4943C56.8607 10.3298 54.1217 8.61708 51.1416 7.44134C49.5318 6.78906 47.8785 6.24966 46.1938 5.82708C42.9736 5.13899 39.6607 4.99692 36.3935 5.4068C33.6066 5.75602 30.8867 6.51566 28.3222 7.66104C27.7395 7.90939 27.1951 8.27236 26.6029 8.5016C26.114 8.70714 25.5942 8.82981 25.065 8.86457H18.2641C18.0062 8.86457 17.7387 8.80726 17.4713 8.77861L17.4044 8.58757C17.796 8.21505 18.1781 7.82342 18.5984 7.4891C20.512 5.94286 22.5911 4.61341 24.7976 3.52508C26.4977 2.72941 28.2497 2.04967 30.0415 1.49053C34.0838 0.193429 38.3456 -0.277581 42.5736 0.105505C44.121 0.296542 45.6875 0.420717 47.2158 0.726377C48.6406 1.03456 50.0419 1.44313 51.4091 1.94902C52.932 2.49035 54.4187 3.12844 55.8602 3.85939C58.1948 5.00172 60.3481 6.48229 62.2505 8.25325C63.645 9.60007 65.0587 10.9278 66.3578 12.3701C67.225 13.4054 68.0319 14.4897 68.7744 15.6177C68.8096 15.6856 68.8279 15.761 68.8279 15.8374C68.8279 15.9139 68.8096 15.9892 68.7744 16.0571C67.8765 17.6905 66.9404 19.3048 65.9088 21.0432Z"
      fill="#00A0DA" />
  </g>
  <defs>
    <clipPath id="clip0_101_9">
      <rect width="79.9998" height="80.1643" fill="white" transform="translate(0 -0.0236816)" />
    </clipPath>
  </defs>
</svg>
